<svg width="64" height="11" viewBox="0 0 64 11" fill="none" xmlns="http://www.w3.org/2000/svg">
<g id="Group 65">
<g id="Group 64">
<path id="Star 2" d="M5.64414 1.42259C5.70579 1.23287 5.9742 1.23287 6.03584 1.42259L6.90338 4.09259C6.93094 4.17743 7.01001 4.23488 7.09923 4.23488H9.90663C10.1061 4.23488 10.1891 4.49015 10.0277 4.60741L7.75643 6.25756C7.68426 6.31 7.65406 6.40295 7.68163 6.4878L8.54916 9.15779C8.61081 9.34752 8.39366 9.50528 8.23227 9.38803L5.96103 7.73788C5.88886 7.68544 5.79112 7.68544 5.71895 7.73788L3.44771 9.38803C3.28632 9.50528 3.06918 9.34752 3.13082 9.15779L3.99835 6.4878C4.02592 6.40295 3.99572 6.31 3.92355 6.25756L1.65231 4.60741C1.49092 4.49015 1.57387 4.23488 1.77336 4.23488H4.58075C4.66997 4.23488 4.74904 4.17743 4.77661 4.09259L5.64414 1.42259Z" fill="#F1CC4A"/>
<path id="Star 4" d="M32.0031 1.42268C32.0648 1.23296 32.3332 1.23296 32.3949 1.42268L33.2624 4.09268C33.29 4.17753 33.369 4.23497 33.4582 4.23497H36.2656C36.4651 4.23497 36.5481 4.49025 36.3867 4.6075L34.1154 6.25765C34.0433 6.31009 34.0131 6.40304 34.0406 6.48789L34.9082 9.15788C34.9698 9.34761 34.7527 9.50538 34.5913 9.38812L32.32 7.73797C32.2479 7.68553 32.1501 7.68553 32.078 7.73797L29.8067 9.38812C29.6453 9.50538 29.4282 9.34761 29.4898 9.15788L30.3574 6.48789C30.3849 6.40304 30.3547 6.31009 30.2826 6.25765L28.0113 4.6075C27.8499 4.49025 27.9329 4.23497 28.1324 4.23497H30.9398C31.029 4.23497 31.108 4.17753 31.1356 4.09268L32.0031 1.42268Z" fill="#F1CC4A"/>
<path id="Star 3" d="M18.8237 1.42268C18.8853 1.23296 19.1537 1.23296 19.2154 1.42268L20.0829 4.09268C20.1105 4.17753 20.1895 4.23497 20.2788 4.23497H23.0862C23.2857 4.23497 23.3686 4.49025 23.2072 4.6075L20.936 6.25765C20.8638 6.31009 20.8336 6.40304 20.8612 6.48789L21.7287 9.15788C21.7903 9.34761 21.5732 9.50538 21.4118 9.38812L19.1406 7.73797C19.0684 7.68553 18.9707 7.68553 18.8985 7.73797L16.6272 9.38812C16.4659 9.50538 16.2487 9.34761 16.3104 9.15788L17.1779 6.48789C17.2055 6.40304 17.1753 6.31009 17.1031 6.25765L14.8318 4.6075C14.6705 4.49025 14.7534 4.23497 14.9529 4.23497H17.7603C17.8495 4.23497 17.9286 4.17753 17.9561 4.09268L18.8237 1.42268Z" fill="#F1CC4A"/>
<path id="Star 5" d="M45.1827 1.42268C45.2443 1.23296 45.5127 1.23296 45.5744 1.42268L46.4419 4.09268C46.4695 4.17753 46.5485 4.23497 46.6377 4.23497H49.4451C49.6446 4.23497 49.7276 4.49025 49.5662 4.6075L47.2949 6.25765C47.2228 6.31009 47.1926 6.40304 47.2201 6.48789L48.0877 9.15788C48.1493 9.34761 47.9322 9.50538 47.7708 9.38812L45.4995 7.73797C45.4274 7.68553 45.3296 7.68553 45.2575 7.73797L42.9862 9.38812C42.8248 9.50538 42.6077 9.34761 42.6693 9.15788L43.5369 6.48789C43.5644 6.40304 43.5342 6.31009 43.4621 6.25765L41.1908 4.6075C41.0294 4.49025 41.1124 4.23497 41.3119 4.23497H44.1193C44.2085 4.23497 44.2875 4.17753 44.3151 4.09268L45.1827 1.42268Z" fill="#F1CC4A"/>
<path id="Star 6" d="M58.3622 1.42268C58.4238 1.23296 58.6922 1.23296 58.7539 1.42268L59.6214 4.09268C59.649 4.17753 59.728 4.23497 59.8172 4.23497H62.6246C62.8241 4.23497 62.9071 4.49025 62.7457 4.6075L60.4745 6.25765C60.4023 6.31009 60.3721 6.40304 60.3996 6.48789L61.2672 9.15788C61.3288 9.34761 61.1117 9.50538 60.9503 9.38812L58.6791 7.73797C58.6069 7.68553 58.5091 7.68553 58.437 7.73797L56.1657 9.38812C56.0043 9.50538 55.7872 9.34761 55.8488 9.15788L56.7164 6.48789C56.7439 6.40304 56.7137 6.31009 56.6416 6.25765L54.3703 4.6075C54.2089 4.49025 54.2919 4.23497 54.4914 4.23497H57.2988C57.388 4.23497 57.4671 4.17753 57.4946 4.09268L58.3622 1.42268Z" fill="#F1CC4A"/>
</g>
</g>
</svg>
